<svg width="23" height="23" viewBox="0 0 23 23" fill="none" xmlns="http://www.w3.org/2000/svg">
<path fill-rule="evenodd" clip-rule="evenodd" d="M0.500488 1C0.500488 0.801088 0.579506 0.610322 0.720158 0.46967C0.86081 0.329018 1.05158 0.25 1.25049 0.25H3.50049C3.66779 0.250046 3.83026 0.306026 3.96209 0.409037C4.09391 0.512048 4.1875 0.656176 4.22799 0.8185L4.83549 3.25H22.2505C22.3614 3.25007 22.4709 3.27474 22.5712 3.32223C22.6714 3.36972 22.7599 3.43885 22.8302 3.52465C22.9005 3.61044 22.9509 3.71076 22.9777 3.81838C23.0046 3.926 23.0072 4.03823 22.9855 4.147L21.4855 11.647C21.4527 11.8105 21.3663 11.9585 21.2399 12.0674C21.1136 12.1764 20.9546 12.2401 20.788 12.2485L6.69249 12.9565L7.12299 15.25H20.0005C20.1994 15.25 20.3902 15.329 20.5308 15.4697C20.6715 15.6103 20.7505 15.8011 20.7505 16C20.7505 16.1989 20.6715 16.3897 20.5308 16.5303C20.3902 16.671 20.1994 16.75 20.0005 16.75H6.50049C6.32564 16.7498 6.15634 16.6886 6.02185 16.5768C5.88737 16.4651 5.79616 16.3099 5.76399 16.138L3.51549 4.1605L2.91549 1.75H1.25049C1.05158 1.75 0.86081 1.67098 0.720158 1.53033C0.579506 1.38968 0.500488 1.19891 0.500488 1ZM5.15349 4.75L6.41349 11.4685L20.1295 10.78L21.3355 4.75H5.15349ZM8.00049 16.75C7.20484 16.75 6.44178 17.0661 5.87917 17.6287C5.31656 18.1913 5.00049 18.9544 5.00049 19.75C5.00049 20.5456 5.31656 21.3087 5.87917 21.8713C6.44178 22.4339 7.20484 22.75 8.00049 22.75C8.79614 22.75 9.5592 22.4339 10.1218 21.8713C10.6844 21.3087 11.0005 20.5456 11.0005 19.75C11.0005 18.9544 10.6844 18.1913 10.1218 17.6287C9.5592 17.0661 8.79614 16.75 8.00049 16.75ZM18.5005 16.75C17.7048 16.75 16.9418 17.0661 16.3792 17.6287C15.8166 18.1913 15.5005 18.9544 15.5005 19.75C15.5005 20.5456 15.8166 21.3087 16.3792 21.8713C16.9418 22.4339 17.7048 22.75 18.5005 22.75C19.2961 22.75 20.0592 22.4339 20.6218 21.8713C21.1844 21.3087 21.5005 20.5456 21.5005 19.75C21.5005 18.9544 21.1844 18.1913 20.6218 17.6287C20.0592 17.0661 19.2961 16.75 18.5005 16.75ZM8.00049 18.25C7.60266 18.25 7.22113 18.408 6.93983 18.6893C6.65852 18.9706 6.50049 19.3522 6.50049 19.75C6.50049 20.1478 6.65852 20.5294 6.93983 20.8107C7.22113 21.092 7.60266 21.25 8.00049 21.25C8.39831 21.25 8.77984 21.092 9.06115 20.8107C9.34245 20.5294 9.50049 20.1478 9.50049 19.75C9.50049 19.3522 9.34245 18.9706 9.06115 18.6893C8.77984 18.408 8.39831 18.25 8.00049 18.25ZM18.5005 18.25C18.1027 18.25 17.7211 18.408 17.4398 18.6893C17.1585 18.9706 17.0005 19.3522 17.0005 19.75C17.0005 20.1478 17.1585 20.5294 17.4398 20.8107C17.7211 21.092 18.1027 21.25 18.5005 21.25C18.8983 21.25 19.2798 21.092 19.5611 20.8107C19.8425 20.5294 20.0005 20.1478 20.0005 19.75C20.0005 19.3522 19.8425 18.9706 19.5611 18.6893C19.2798 18.408 18.8983 18.25 18.5005 18.25Z" fill="white"/>
</svg>
