<svg width="339" height="57" viewBox="0 0 339 57" fill="none" xmlns="http://www.w3.org/2000/svg">
<path d="M51.1248 11.8832C53.8614 10.0078 55.7301 8.86857 56.7308 8.46539C57.7316 8.02887 58.8986 7.80849 60.2319 7.80424C61.5986 7.79989 62.6478 8.26321 63.3794 9.1942C64.1111 10.1252 64.4754 11.4574 64.4723 13.1907C64.4668 16.2907 63.4609 19.6272 61.4546 23.2002C59.4483 26.7733 56.9429 29.7812 53.9386 32.2241C50.9344 34.6337 48.0989 35.8427 45.4323 35.8512C44.7656 35.8533 43.999 35.8224 43.1325 35.7585C41.493 39.2304 40.005 41.8518 38.6685 43.6227C37.3321 45.3936 35.9972 46.2812 34.6639 46.2854C33.8305 46.2881 33.1811 45.9901 32.7155 45.3916C32.2499 44.7931 32.018 43.9605 32.0199 42.8938C32.026 39.4605 33.6175 34.8721 36.7943 29.1287C39.9712 23.352 43.4627 18.7242 47.2689 15.2455C47.8061 13.0438 48.0756 11.4429 48.0774 10.4429C48.0792 9.4096 48.0473 8.62638 47.9816 8.09326L51.5826 7.48179C51.5822 7.71513 51.4296 9.18227 51.1248 11.8832ZM39.6389 32.1697L41.0376 32.8652C43.1449 28.7585 44.9197 24.1529 46.3621 19.0483C43.2887 22.8914 40.7651 26.7994 38.7914 30.7724C36.8177 34.7453 35.8289 37.7984 35.8251 39.9317C35.824 40.5651 36.0234 40.8811 36.4234 40.8798C36.7234 40.8789 37.2579 40.2605 38.0267 39.0247C38.7956 37.7556 39.4479 36.4702 39.9836 35.1685C39.5506 34.9699 39.1344 34.6712 38.7352 34.2725L39.6389 32.1697ZM44.1864 33.5552L45.1363 33.6021C48.3696 33.5918 51.4059 31.8822 54.2453 28.4732C55.8488 26.5014 57.2028 24.2471 58.3073 21.7103C59.4451 19.1733 60.0156 17.0215 60.0187 15.2549C60.0204 14.2882 59.7551 13.5224 59.2228 12.9574C58.7238 12.3923 58.0243 12.1112 57.1243 12.1141C55.491 12.1193 53.3227 13.0262 50.6196 14.8348C50.0116 19.3367 47.8672 25.5768 44.1864 33.5552ZM80.0848 34.2408L81.2333 35.0871C80.7648 36.0886 79.8965 37.0414 78.6282 37.9454C77.3933 38.8494 76.2592 39.303 75.2258 39.3063C73.2592 39.3125 72.2777 38.2823 72.2813 36.2157C72.2831 35.249 72.5351 34.0982 73.0375 32.7633L71.1841 34.6692C69.3809 36.5082 67.812 37.7465 66.4776 38.3841C65.1764 39.0216 63.8926 39.3424 62.6259 39.3464C61.3592 39.3504 60.3932 39.0035 59.7278 38.3056C59.0957 37.5743 58.7809 36.5753 58.7831 35.3087C58.7872 32.9753 59.6913 30.6725 61.4953 28.4001C63.2994 26.0943 65.6027 24.2203 68.4053 22.7781C71.2078 21.3358 74.0091 20.5936 76.8091 20.5513L76.9062 22.201L74.8054 22.6577C71.7709 23.334 69.0852 24.6759 66.7483 26.6833C64.4448 28.6907 63.2913 30.6943 63.2877 32.6943C63.2842 34.661 64.0825 35.6418 65.6824 35.6367C67.1824 35.6319 69.0343 34.576 71.238 32.469C73.4417 30.362 75.2794 27.8895 76.7511 25.0515L78.8489 26.2948C76.7748 30.4681 75.7368 33.1213 75.7348 34.2547C75.734 34.7213 75.8833 35.1209 76.1827 35.4532C76.5155 35.7522 76.8319 35.9012 77.1319 35.9002C77.4652 35.8991 77.6819 35.8818 77.7819 35.8481C77.882 35.8145 77.9821 35.7808 78.0821 35.7472C78.1822 35.6802 78.299 35.5965 78.4326 35.4961C78.5994 35.3955 78.7329 35.2951 78.8331 35.1948C78.9666 35.0944 79.1669 34.9437 79.4339 34.7429C79.7009 34.542 79.9179 34.3747 80.0848 34.2408ZM89.8323 56.6596L87.1343 55.5682C87.1383 53.3015 90.47 44.841 97.1293 30.1866C94.5899 33.5946 92.4525 35.9347 90.7169 37.2069C89.0147 38.4457 87.4969 39.0672 86.1636 39.0714C83.5636 39.0797 82.2662 37.6338 82.2714 34.7338C82.2756 32.3338 83.0964 29.9979 84.7338 27.7261C86.4045 25.4541 88.6077 23.6137 91.3435 22.205C94.0794 20.763 96.8973 20.0374 99.7973 20.0281L100.244 21.7767C97.1108 21.8533 94.0756 22.8963 91.1387 24.9057C88.2352 26.9149 86.781 29.3029 86.7761 32.0695C86.7729 33.8362 87.5213 34.7171 89.0213 34.7123C90.1213 34.7088 91.3224 34.0884 92.6246 32.8509C93.9602 31.58 95.3629 30.0422 96.8328 28.2375C98.336 26.3994 99.5382 25.1456 100.439 24.4761L102.387 25.5698C94.9945 40.3933 90.8095 50.7565 89.8323 56.6596ZM123.417 33.6528L124.465 34.4995C123.896 35.9013 122.994 37.0875 121.759 38.058C120.557 39.0285 119.456 39.5154 118.456 39.5186C117.49 39.5216 116.723 39.1907 116.158 38.5259C115.593 37.8277 115.311 36.9286 115.313 35.8286C115.315 34.7286 115.501 33.3113 115.87 31.5769C114.299 34.0485 112.613 35.9872 110.81 37.3929C109.008 38.7987 107.49 39.5035 106.256 39.5074C104.39 39.5134 103.459 38.183 103.463 35.5163C103.468 33.2497 104.239 30.3472 105.779 26.809C107.319 23.2708 108.439 21.2173 109.14 20.6484L111.538 21.6907C110.167 23.8951 109.13 26.065 108.426 28.2006C107.723 30.3361 107.37 31.7706 107.369 32.5039C107.368 33.2039 107.583 33.7699 108.016 34.2019C108.482 34.6337 109.015 34.8487 109.615 34.8468C110.948 34.8425 112.6 33.6206 114.571 31.181C116.575 28.708 118.615 25.0348 120.691 20.1616L123.239 21.3035C123.171 21.5703 122.401 23.5061 120.928 27.1108C119.489 30.7153 118.768 32.8843 118.767 33.6176C118.765 34.3176 118.915 34.8505 119.214 35.2162C119.547 35.5818 119.863 35.7641 120.163 35.7631C120.496 35.7621 120.746 35.7446 120.913 35.7108C121.08 35.6769 121.246 35.6097 121.413 35.5092C121.58 35.4086 121.714 35.3249 121.814 35.2579C121.947 35.1908 122.097 35.0737 122.264 34.9065L122.665 34.5552C122.732 34.455 122.849 34.3046 123.016 34.1041C123.216 33.8701 123.35 33.7197 123.417 33.6528ZM135.716 17.9137C133.849 17.9197 132.917 17.1727 132.92 15.6727C132.921 14.8393 133.156 14.1386 133.624 13.5704C134.091 13.0023 134.692 12.717 135.425 12.7147C136.158 12.7124 136.758 12.9271 137.224 13.359C137.69 13.7908 137.922 14.3567 137.921 15.0567C137.92 15.7567 137.719 16.4074 137.318 17.0086C136.916 17.6099 136.383 17.9116 135.716 17.9137ZM135.04 32.6658L136.038 33.5126C135.235 35.0485 134.166 36.3685 132.831 37.4728C131.529 38.5436 130.345 39.0807 129.278 39.0841C127.412 39.09 126.481 37.793 126.485 35.193C126.491 31.9597 127.832 27.7388 130.508 22.5303C131.11 21.3951 131.461 20.7273 131.561 20.527L133.709 21.8201C133.007 23.089 132.137 25.1084 131.098 27.8784C130.093 30.6482 129.59 32.4331 129.589 33.2331C129.587 33.9998 129.753 34.5493 130.086 34.8815C130.419 35.2138 130.818 35.3792 131.285 35.3777C132.185 35.3749 133.437 34.4709 135.04 32.6658Z" fill="white"/>
<path d="M165.99 42.8948L166.236 45.244C165.302 45.4136 164.485 45.4996 163.785 45.5018C162.218 45.5068 160.72 44.4616 159.291 42.3661C157.861 40.304 156.732 37.8743 155.904 35.077C155.109 32.2795 154.613 29.5811 154.418 26.9818C152.744 31.3204 151.155 34.4754 149.651 36.4469C148.181 38.3849 146.663 39.3564 145.096 39.3614C144.296 39.3639 143.663 39.0493 143.198 38.4174C142.732 37.7522 142.501 36.8863 142.503 35.8196C142.507 33.353 143.646 30.216 145.919 26.4088C148.226 22.6015 150.915 19.4763 153.986 17.0332C154.053 16.833 154.338 15.6154 154.842 13.3805C155.38 11.1455 155.698 9.91114 155.799 9.67749L158.699 9.41825C158.698 9.98492 158.546 11.1687 158.243 12.9697C162.749 9.52202 166.452 7.79357 169.352 7.78434C170.719 7.77998 171.801 8.15986 172.6 8.92398C173.399 9.65477 173.797 10.6535 173.795 11.9202C173.789 15.0868 172.183 18.2919 168.978 21.5354C165.772 24.7456 162.352 26.6398 158.718 27.2181C158.976 32.0505 159.802 35.8312 161.197 38.5601C162.626 41.2888 164.223 42.7337 165.99 42.8948ZM151.469 26.2412C152.374 23.8383 152.994 21.9197 153.33 20.4853C151.493 22.1911 149.789 24.4632 148.218 27.3015C146.679 30.1397 145.909 32.2422 145.906 33.6088C145.905 34.3088 146.188 34.6579 146.755 34.6561C147.755 34.6529 149.326 31.8479 151.469 26.2412ZM154.871 25.5303C158.404 25.5191 161.573 24.2757 164.377 21.8001C167.182 19.3245 168.586 16.87 168.59 14.4367C168.592 13.5367 168.36 12.8375 167.894 12.3389C167.462 11.8403 166.762 11.5926 165.795 11.5956C164.829 11.5987 163.428 12.1532 161.592 13.259C159.757 14.3315 158.439 15.219 157.638 15.9216C156.597 20.0249 155.675 23.2278 154.871 25.5303ZM184.729 24.7352C185.593 26.1658 186.024 27.7478 186.021 29.4811C186.016 32.1811 185.078 34.6007 183.208 36.74C181.337 38.8459 179.136 39.9029 176.602 39.911C174.669 39.9172 173.153 39.372 172.055 38.2755C170.991 37.1456 170.46 35.5973 170.464 33.6306C170.469 30.4639 171.708 27.6267 174.179 25.1188C176.65 22.5776 179.419 21.3022 182.485 21.2924C183.052 21.2906 183.452 21.306 183.685 21.3386L183.832 22.9881C181.166 22.9966 178.948 23.7703 177.178 25.3093C175.409 26.8482 174.522 28.8177 174.518 31.2177C174.515 32.651 174.863 33.8166 175.562 34.7144C176.26 35.5788 177.276 36.0089 178.609 36.0046C179.976 36.0003 181.06 35.3968 181.862 34.1943C182.665 32.9918 183.067 31.5905 183.07 29.9905C183.073 28.3572 182.759 26.8748 182.128 25.5435L184.729 24.7352ZM195.93 25.7996C197.533 24.1611 198.935 23.04 200.136 22.4362C201.37 21.7989 202.521 21.4786 203.588 21.4752C204.687 21.4717 205.587 21.8522 206.285 22.6166C207.017 23.3476 207.382 24.3131 207.38 25.5131C207.375 28.6131 206.069 31.8839 203.463 35.3255C200.857 38.7338 198.054 40.4427 195.054 40.4522C194.154 40.4551 193.304 40.2911 192.505 39.9604L193.709 37.7565C194.242 37.8882 194.658 37.9535 194.958 37.9526C196.992 37.9461 198.844 36.8069 200.514 34.5349C202.185 32.2629 203.022 30.0269 203.026 27.8269C203.027 27.1269 202.795 26.561 202.329 26.1292C201.897 25.6639 201.33 25.4324 200.63 25.4346C199.097 25.4395 197.295 26.6785 195.224 29.1518C193.186 31.6249 191.397 34.8473 189.857 38.8188L186.809 37.5785C187.818 32.4753 189.829 26.2523 192.842 18.9094C195.855 11.5666 198.364 6.37527 200.37 3.33557L202.918 4.22745C200.711 8.33445 198.352 13.4253 195.841 19.4999C193.364 25.5744 191.906 29.6957 191.469 31.8637C192.84 29.4594 194.327 27.438 195.93 25.7996ZM216.547 34.6838L217.596 35.5305C216.459 37.3007 215.474 38.5872 214.639 39.3899C213.837 40.1591 212.937 40.5453 211.937 40.5485C210.937 40.5516 210.121 40.1542 209.489 39.3563C208.857 38.5583 208.542 37.5593 208.544 36.3593C208.548 34.026 210.091 29.0044 213.171 21.2947C216.251 13.5516 219.413 6.74156 222.657 0.864605L224.855 2.0576C221.577 8.40132 218.616 14.7107 215.971 20.9858C213.327 27.2275 212.002 31.715 211.998 34.4483C211.995 36.015 212.577 36.7964 213.743 36.7927C214.677 36.7898 215.611 36.0868 216.547 34.6838ZM236.423 33.5205L237.572 34.4169C236.536 35.8535 235.117 37.058 233.315 38.0304C231.514 38.9695 229.763 39.4417 228.063 39.4471C226.363 39.4525 224.997 38.9569 223.965 37.9602C222.934 36.9635 222.42 35.6484 222.422 34.0151C222.428 30.9484 224.05 27.9266 227.288 24.9497C230.56 21.9726 233.863 20.4788 237.196 20.4682C239.396 20.4611 240.495 21.3243 240.492 23.0576C240.489 24.8576 239.319 26.678 236.982 28.5188C234.679 30.3594 231.426 32.0364 227.223 33.5498C227.522 34.3155 227.987 34.914 228.62 35.3454C229.253 35.7767 229.902 35.9913 230.569 35.9891C232.002 35.9846 233.954 35.1617 236.423 33.5205ZM226.976 32.0506C229.678 31.1087 231.996 29.9346 233.932 28.5285C235.868 27.1223 236.837 25.8359 236.839 24.6693C236.84 24.2359 236.674 23.8531 236.341 23.5209C236.008 23.1886 235.625 23.0231 235.192 23.0245C233.625 23.0295 231.923 24.0183 230.087 25.9908C228.283 27.9298 227.246 29.9498 226.976 32.0506ZM256.72 19.806L256.266 21.7574C255.7 21.6925 254.966 21.6615 254.066 21.6644C250.733 21.675 249.064 22.7803 249.06 24.9803C249.06 25.447 249.724 26.8115 251.053 29.074C252.416 31.3363 253.096 32.8508 253.095 33.6174C253.092 35.4174 252.473 36.836 251.238 37.8733C250.036 38.8771 248.418 39.3823 246.385 39.3887C243.585 39.3977 241.338 37.8548 239.643 34.7603L241.546 33.4042C242.012 33.7694 242.511 34.2178 243.043 34.7494C243.576 35.2477 243.975 35.5965 244.241 35.7956C244.874 36.3603 245.573 36.6414 246.34 36.6389C247.106 36.6365 247.774 36.3677 248.341 35.8325C248.909 35.2641 249.193 34.5798 249.195 33.7798C249.196 32.9465 248.466 31.4155 247.003 29.1869C245.574 26.9581 244.86 25.3937 244.861 24.4937C244.864 22.8604 245.55 21.6082 246.918 20.7372C248.32 19.8661 250.137 19.4269 252.37 19.4198C254.637 19.4126 256.087 19.5413 256.72 19.806Z" fill="white"/>
<path d="M254.668 37.3838C254.468 37.1844 254.369 36.943 254.369 36.6597C254.37 36.3764 254.47 36.1344 254.67 35.9338C254.871 35.7331 255.113 35.6324 255.396 35.6315C255.679 35.6306 255.921 35.7298 256.12 35.9291C256.32 36.1285 256.42 36.3699 256.419 36.6532C256.419 36.9365 256.318 37.1785 256.118 37.3791C255.918 37.5798 255.676 37.6805 255.392 37.6814C255.109 37.6824 254.868 37.5831 254.668 37.3838ZM268.744 34.9639L269.318 35.3871C269.084 35.8879 268.649 36.3642 268.015 36.8163C267.398 37.2682 266.831 37.495 266.314 37.4967C265.331 37.4998 264.84 36.9847 264.842 35.9514C264.843 35.468 264.969 34.8926 265.22 34.2252L264.293 35.1781C263.392 36.0976 262.607 36.7168 261.94 37.0356C261.289 37.3543 260.647 37.5147 260.014 37.5167C259.381 37.5187 258.898 37.3453 258.565 36.9963C258.249 36.6307 258.092 36.1312 258.093 35.4979C258.095 34.3312 258.547 33.1798 259.449 32.0436C260.351 30.8907 261.503 29.9537 262.904 29.2326C264.305 28.5115 265.706 28.1403 267.106 28.1192L267.154 28.9441L266.104 29.1724C264.587 29.5106 263.244 30.1815 262.075 31.1852C260.924 32.1889 260.347 33.1907 260.345 34.1907C260.343 35.174 260.742 35.6644 261.542 35.6619C262.292 35.6595 263.218 35.1315 264.32 34.078C265.422 33.0245 266.341 31.7883 267.077 30.3693L268.126 30.9909C267.089 33.0776 266.57 34.4042 266.569 34.9709C266.568 35.2042 266.643 35.404 266.792 35.5702C266.959 35.7196 267.117 35.7941 267.267 35.7936C267.434 35.7931 267.542 35.7844 267.592 35.7676C267.642 35.7508 267.692 35.734 267.742 35.7171C267.792 35.6836 267.851 35.6418 267.917 35.5916C268.001 35.5413 268.068 35.4911 268.118 35.4409C268.184 35.3907 268.285 35.3154 268.418 35.215C268.552 35.1146 268.66 35.0309 268.744 34.9639ZM276.848 28.6132C277.265 28.6118 277.607 28.7524 277.873 29.0349C278.139 29.3174 278.272 29.6836 278.271 30.1336C278.269 31.0336 277.751 31.9853 276.716 32.9886L276.117 32.5155C276.351 31.9981 276.468 31.6227 276.469 31.3894C276.469 30.9394 276.22 30.7152 275.72 30.7168C275.22 30.7183 274.744 31.0365 274.293 31.6713C273.842 32.3061 273.307 33.2911 272.688 34.6264C272.086 35.945 271.626 36.8798 271.308 37.4308L269.884 36.8103C270.804 34.724 271.332 33.4974 271.466 33.1303C271.918 31.8289 272.146 30.1781 272.149 28.1781L273.55 27.7987C273.498 28.8822 273.422 29.7241 273.32 30.3244C273.219 30.9081 272.976 31.8672 272.59 33.2017C274.279 30.1463 275.698 28.6168 276.848 28.6132ZM284.674 34.6382L285.223 35.2615C284.805 35.9128 284.296 36.4227 283.696 36.7913C283.112 37.1598 282.52 37.345 281.92 37.347C281.32 37.3489 280.845 37.1837 280.496 36.8515C280.146 36.5026 279.972 36.0282 279.973 35.4282C279.976 34.0282 280.504 32.0932 281.558 29.6232C280.708 29.7592 279.858 29.9619 279.007 30.2313L278.834 29.2568L278.809 29.2319C279.643 28.8793 280.735 28.5925 282.086 28.3715C282.219 28.1211 282.52 27.5118 282.989 26.5436C283.926 24.624 284.594 23.3802 284.995 22.8123L286.07 23.2338C285.902 23.601 285.61 24.2186 285.191 25.0866C284.773 25.938 284.305 26.9061 283.786 27.9911C284.536 27.9387 285.128 27.9118 285.561 27.9104C285.995 27.9091 286.328 27.9747 286.561 28.1072L286.559 29.1822C286.326 29.133 285.984 29.1091 285.534 29.1105C285.101 29.1119 284.317 29.1894 283.184 29.343C282.197 31.5461 281.702 33.1477 281.7 34.1477C281.7 34.531 281.816 34.8473 282.049 35.0966C282.298 35.3458 282.623 35.4697 283.023 35.4685C283.44 35.4671 283.99 35.1904 284.674 34.6382Z" fill="white"/>
</svg>
